User Type,Username,Date,Text
[V],Zen_Bud,2010-08-07T08:39Z,"We can´t edit the torrent and the picture is wrong

The right:http://bayimg.com/HaohiAACc

/Zen_Bud :D"
[V],Zen_Bud,2010-08-07T08:43Z,"General
Complete name                    : Änglavakt.2010.avi
Format                           : AVI
File size                        : 1.37 GiB
Duration                         : 1h 30mn
Overall bit rate                 : 2 172 Kbps

Video

Format                           : MPEG-4 Visual
Codec ID/Hint                    : XviD
Duration                         : 1h 30mn
Bit rate                         : 1 713 Kbps
Width                            : 720 pixels
Height                           : 434 pixels
Display aspect ratio             : 2.35:1
Stream size                      : 1.08 GiB (79%)
Writing library                  : XviD 1.1.2 (UTC 2006-11-01)

Audio

Format                           : AC-3
Bit rate                         : 448 Kbps
Channel(s)                       : 6 channels
Channel positions                : Front: L C R, Side: L R, LFE
Sampling rate                    : 48.0 KHz
Stream size                      : 289 MiB (21%)
Alignment                        : Aligned on interleaves
Interleave, duration             : 32 ms (0.80 video frame)
"
,Bysheon,2010-08-13T20:18Z,"Tack. Har sett fram emot den här. Helt ok ljud och bild.

Tips om undertexter? "
[V],Zen_Bud,2010-08-14T11:41Z,"@Bysheon  and all pirates :)

Here is the Sub:


http://thepiratebay.org/torrent/5762895"
,Bysheon,2010-08-14T18:52Z,Grazie
,Bysheon,2010-08-14T18:53Z,Grazie. Sidar.
